HIERARCHY
ROOT Hips
{
	OFFSET -1.011428 107.105003 -1.684370
	CHANNELS 6 Xposition Yposition Zposition Xrotation Yrotation Zrotation
	JOINT Chest
	{
		OFFSET -0.473799 13.635208 -0.103801
		CHANNELS 3 Xrotation Yrotation Zrotation
		JOINT Chest2
		{
			OFFSET -2.072818 21.264168 1.614007
			CHANNELS 3 Xrotation Yrotation Zrotation
			JOINT Chest3
			{
				OFFSET -0.697260 14.854004 -1.300929
				CHANNELS 3 Xrotation Yrotation Zrotation
				JOINT Neck
				{
					OFFSET 0.086264 17.280151 -0.068825
					CHANNELS 3 Xrotation Yrotation Zrotation
					JOINT Head
					{
						OFFSET -0.366303 10.404526 1.199745
						CHANNELS 3 Xrotation Yrotation Zrotation
						End Site
						{
							OFFSET -0.362633 10.412750 1.127224
						}
					}
				}
				JOINT LeftCollar
				{
					OFFSET 4.529782 13.245453 2.417344
					CHANNELS 3 Xrotation Yrotation Zrotation
					JOINT LeftUpArm
					{
						OFFSET 15.072078 -3.578873 -8.277902
						CHANNELS 3 Xrotation Yrotation Zrotation
						JOINT LeftLowArm
						{
							OFFSET 29.416832 -15.593811 5.586696
							CHANNELS 3 Xrotation Yrotation Zrotation
							JOINT LeftHand
							{
								OFFSET 25.037472 -4.710648 15.870776
								CHANNELS 3 Xrotation Yrotation Zrotation
								End Site
								{
									OFFSET 5.472092 -1.029526 3.468650
								}
							}
						}
					}
				}
				JOINT RightCollar
				{
					OFFSET -3.848496 13.290619 3.218282
					CHANNELS 3 Xrotation Yrotation Zrotation
					JOINT RightUpArm
					{
						OFFSET -16.752356 -0.664429 -5.235785
						CHANNELS 3 Xrotation Yrotation Zrotation
						JOINT RightLowArm
						{
							OFFSET -31.763144 3.293060 10.954117
							CHANNELS 3 Xrotation Yrotation Zrotation
							JOINT RightHand
							{
								OFFSET -26.763237 2.379333 13.379923
								CHANNELS 3 Xrotation Yrotation Zrotation
								End Site
								{
									OFFSET -5.849373 0.520035 2.924322
								}
							}
						}
					}
				}
			}
		}
	}
	JOINT LeftUpLeg
	{
		OFFSET 10.014528 0.348412 0.083564
		CHANNELS 3 Xrotation Yrotation Zrotation
		JOINT LeftLowLeg
		{
			OFFSET 10.398092 -45.414860 8.565062
			CHANNELS 3 Xrotation Yrotation Zrotation
			JOINT LeftFoot
			{
				OFFSET -1.621155 -41.000042 -17.802729
				CHANNELS 3 Xrotation Yrotation Zrotation
				JOINT LeftToe
				{
					OFFSET 0.303102 -17.616743 15.783485
					CHANNELS 3 Xrotation Yrotation Zrotation
					End Site
					{
						OFFSET 3.611673 -3.821518 23.063189
					}
				}
			}
		}
	}
	JOINT RightUpLeg
	{
		OFFSET -10.014524 -0.348610 -0.083563
		CHANNELS 3 Xrotation Yrotation Zrotation
		JOINT RightLowLeg
		{
			OFFSET -1.603608 -47.308418 -1.831477
			CHANNELS 3 Xrotation Yrotation Zrotation
			JOINT RightFoot
			{
				OFFSET 2.491813 -42.040558 -15.065274
				CHANNELS 3 Xrotation Yrotation Zrotation
				JOINT RightToe
				{
					OFFSET 0.329721 -16.127993 17.301329
					CHANNELS 3 Xrotation Yrotation Zrotation
					End Site
					{
						OFFSET -4.810928 -2.175187 23.058178
					}
				}
			}
		}
	}
}
MOTION
Frames: 16
Frame Time: 0.033333
-8.453075 101.200165 -7.733019 4.602086 6.189216 -5.617759 3.016626 0.270880 -3.070340 -4.162753 -3.038490 5.384319 -0.106730 -2.739232 -1.034498 -6.982758 -4.120525 4.537336 0.000000 -0.000000 0.000000 6.057422 -10.411420 10.255999 -5.357917 -33.485808 10.060015 -70.722087 -70.269403 -70.209898 -0.000002 -0.000002 0.000001 1.396373 3.505868 -18.328336 -3.926730 -1.031017 -37.072156 -16.981647 2.592198 -55.470340 -0.000001 -0.000001 0.000002 -25.310545 -7.642734 26.709786 29.675208 -15.287951 -90.640640 -1.790004 35.943871 6.375119 -0.000000 -0.000005 0.000001 -11.928614 0.048216 4.749974 10.337861 -2.914190 13.131987 -6.776743 -11.117132 -0.379026 -0.000001 0.000003 -0.000002 
-8.470640 101.046700 -7.858002 4.721880 6.407164 -5.717512 2.925413 0.259383 -2.969422 -3.512600 -3.089146 5.528937 -0.633624 -2.869448 -1.185776 -8.378977 -4.021184 4.503113 -0.000000 -0.000000 -0.000000 6.225548 -10.409928 10.359527 -4.891978 -33.259371 10.447541 -70.021125 -71.069252 -68.056073 -0.000001 -0.000002 0.000002 1.403681 3.288132 -18.341810 -3.884376 -1.502066 -37.268418 -17.435298 1.433946 -55.817440 0.000003 -0.000002 0.000001 -25.341260 -7.633369 26.872705 30.924996 -16.446049 -89.598544 -1.049385 35.061960 5.795918 -0.000001 0.000003 -0.000001 -12.383287 0.059780 4.671141 10.370212 -2.897328 13.566095 -6.569699 -11.773040 -0.277653 -0.000000 0.000001 0.000001 
-8.487893 100.900772 -7.976254 4.230890 6.695269 -5.789820 3.265527 0.245492 -2.728306 -4.051348 -3.008865 5.337697 -0.160116 -2.921722 -1.159033 -8.867624 -3.970578 4.541057 -0.000001 -0.000000 0.000000 6.390056 -10.598880 10.563015 -4.849748 -32.925268 10.248680 -69.372934 -71.255648 -66.850176 -0.000001 -0.000006 -0.000000 1.386585 3.161250 -18.394009 -3.840749 -1.478449 -37.208958 -16.743464 2.434383 -55.631355 -0.000001 0.000002 0.000003 -25.068965 -7.511004 26.851125 31.478388 -16.988762 -89.154268 -0.410607 35.295429 5.350442 -0.000001 0.000002 0.000001 -12.786927 0.071330 4.503031 11.097212 -2.661394 14.229483 -6.860531 -11.965857 -0.246386 0.000000 0.000002 -0.000007 
-8.512521 100.755196 -8.102985 4.389418 6.496452 -5.747045 3.517689 0.268454 -2.827312 -4.043618 -3.131495 5.492448 -0.269553 -3.210342 -1.345026 -8.979357 -3.758664 4.304765 -0.000000 -0.000000 0.000000 6.244284 -10.728299 10.588353 -4.780623 -32.165485 10.299452 -70.099297 -71.509041 -66.785296 -0.000000 -0.000003 -0.000001 1.484844 3.504723 -18.592207 -4.175735 -1.808849 -37.121552 -16.692764 2.492614 -55.726458 -0.000003 -0.000003 0.000001 -24.718439 -7.344650 27.235560 31.810797 -17.278702 -88.867728 -0.215579 34.769652 5.051170 -0.000000 -0.000002 0.000000 -13.194688 0.043047 4.474944 11.232417 -2.480348 14.225787 -6.441452 -11.873060 -0.034761 0.000001 -0.000002 0.000001 
-8.542786 100.606682 -8.224917 4.267536 6.352318 -5.688340 3.527268 0.283172 -2.964630 -4.112333 -3.133274 5.485868 -0.299198 -2.999462 -1.280416 -8.975762 -3.714006 4.140418 -0.000000 0.000001 0.000000 5.993479 -10.399051 10.676913 -4.821921 -31.907177 9.609449 -71.649163 -71.557133 -68.187739 -0.000001 0.000001 0.000001 1.488442 3.530835 -18.674227 -4.074061 -1.614913 -37.059018 -16.403560 3.113313 -55.824249 -0.000003 -0.000002 0.000001 -24.263255 -7.218935 27.545330 31.597838 -17.127510 -89.261201 -0.682711 34.838374 5.414967 -0.000001 0.000001 0.000001 -12.844624 0.065904 4.510183 11.164348 -2.447065 14.244225 -6.625695 -11.646972 -0.014513 0.000000 0.000002 -0.000002 
-8.571696 100.463799 -8.337292 4.494263 6.566128 -5.753305 2.986679 0.290974 -3.042116 -4.130859 -3.075991 5.376950 -0.102054 -2.710702 -1.160343 -8.759934 -3.956439 4.216509 -0.000000 -0.000000 0.000000 5.731519 -10.089275 10.664259 -5.082985 -32.217647 9.171110 -71.910595 -71.364924 -68.893222 -0.000001 -0.000002 0.000000 1.482464 3.631668 -18.667732 -4.069396 -1.546897 -36.854779 -15.978599 3.931028 -55.771384 0.000000 -0.000000 -0.000001 -24.544186 -7.365887 27.489773 32.036849 -17.465704 -89.094640 -0.957966 34.546168 5.607736 -0.000000 0.000000 0.000001 -13.215043 0.100833 4.515749 11.394077 -2.420448 14.465444 -6.839339 -11.906297 0.013319 0.000002 0.000002 -0.000000 
-8.605170 100.317093 -8.439660 4.284293 6.272145 -5.721394 3.368427 0.292854 -3.125173 -3.971523 -3.051881 5.344619 -0.297881 -2.272404 -1.136087 -9.317106 -4.126321 4.330061 -0.000001 -0.000000 -0.000000 5.656960 -9.937198 10.769302 -4.886187 -32.285652 9.614370 -71.559947 -71.656396 -68.022783 -0.000002 -0.000001 -0.000000 1.123690 2.980574 -18.836842 -3.768633 -1.030402 -36.726771 -15.980676 3.639524 -55.778098 0.000001 0.000001 -0.000002 -24.224924 -7.254713 27.720628 32.444259 -17.867129 -88.969245 -0.868304 34.054165 5.428826 0.000000 -0.000002 -0.000000 -13.429206 0.119325 4.476973 12.305226 -2.162495 14.735344 -7.515504 -11.691364 -0.102929 -0.000000 0.000002 -0.000002 
-8.642044 100.167236 -8.531171 3.826147 5.682780 -5.728196 3.841794 0.282169 -3.026824 -3.957237 -2.983165 5.233261 -0.418064 -2.589028 -1.156858 -8.394183 -3.814135 4.318028 0.000000 -0.000000 -0.000000 5.511012 -9.691609 10.814259 -4.764991 -31.400476 9.803458 -71.779831 -71.456210 -68.742739 -0.000001 -0.000003 -0.000003 0.540820 2.135860 -19.069979 -3.499326 0.552193 -36.629837 -16.395493 2.971032 -55.874048 -0.000000 -0.000002 -0.000001 -23.912776 -7.083749 27.963787 31.939385 -17.737658 -89.828230 -1.499270 34.734196 5.822805 0.000000 0.000003 0.000001 -13.673761 0.084217 4.496987 13.237713 -1.679363 14.922314 -7.913774 -11.416010 -0.049173 0.000001 0.000002 -0.000004 
-8.676919 100.035973 -8.630660 3.741369 5.971584 -5.890396 3.243991 0.213923 -2.790564 -4.050576 -3.000410 5.220105 -0.264887 -2.466477 -1.304733 -8.190040 -3.908093 4.670368 0.000000 0.000000 -0.000000 5.455064 -9.237690 10.490584 -4.953072 -31.048247 9.685305 -74.097348 -70.687404 -72.711230 0.000001 -0.000001 -0.000001 0.097877 1.562418 -19.165958 -3.275354 1.642192 -36.086003 -17.370937 2.580734 -56.126274 -0.000001 -0.000001 0.000002 -24.012493 -7.114013 27.704400 32.271298 -17.873876 -88.970447 -1.911057 34.596578 6.048392 0.000000 -0.000002 0.000002 -13.501421 0.047401 4.534934 13.020917 -1.889141 15.383936 -7.915324 -11.107733 -0.136439 0.000001 -0.000002 -0.000004 
-8.716319 99.897614 -8.733025 3.759188 6.031322 -6.091025 3.517363 0.169610 -2.560679 -4.319911 -3.053834 5.300179 -0.291845 -2.791721 -1.406569 -8.077384 -3.784445 4.840771 0.000000 0.000000 0.000000 5.484288 -8.974413 10.519908 -4.792520 -30.518945 9.986806 -74.802818 -70.566687 -73.302376 0.000000 0.000003 0.000001 0.163257 1.797027 -19.264134 -3.452459 1.500662 -36.056514 -17.891955 2.599840 -55.980746 -0.000002 0.000000 0.000001 -24.018253 -7.223281 27.769285 32.339969 -17.954481 -88.782098 -1.858918 35.086344 6.101312 0.000000 0.000001 0.000000 -14.290693 0.082159 4.366136 13.802169 -1.711687 16.241136 -8.268418 -11.659412 -0.071135 0.000002 0.000002 -0.000002 
-8.751796 99.762543 -8.832678 3.628126 5.760080 -6.211866 3.642249 0.160753 -2.471636 -4.579928 -2.956547 5.143447 -0.169940 -2.367378 -1.277255 -7.658046 -3.917311 4.958009 -0.000001 -0.000000 0.000000 5.510789 -9.295665 10.610999 -4.786917 -29.926983 10.063904 -76.529114 -70.372382 -75.142285 -0.000000 -0.000001 -0.000001 -0.064994 1.633584 -19.272972 -3.637023 1.816666 -35.886832 -17.385604 3.765507 -55.740846 -0.000001 0.000000 0.000002 -23.397298 -7.063492 28.091057 32.324642 -17.937663 -89.071390 -1.741176 34.734343 6.039862 -0.000000 0.000003 -0.000001 -14.997620 0.102024 4.267191 14.517598 -1.601646 16.771967 -8.188505 -11.909482 -0.028935 0.000002 0.000001 0.000003 
-8.786856 99.631859 -8.928714 3.448405 5.790981 -6.290823 3.608301 0.147288 -2.419636 -3.540476 -2.926270 5.230687 -0.998152 -2.302937 -1.264993 -7.356268 -3.762696 4.867455 -0.000000 0.000000 -0.000000 5.352710 -8.851209 10.756459 -4.890856 -30.124935 9.834876 -77.124905 -70.300173 -75.942865 -0.000001 -0.000001 -0.000000 0.269135 2.234148 -19.339911 -3.756971 1.487197 -35.764148 -17.044027 4.307796 -55.630723 -0.000001 0.000001 -0.000003 -23.222746 -7.015935 28.131510 33.475010 -18.763831 -87.924410 -1.633982 33.923559 5.890512 -0.000002 -0.000004 0.000001 -15.839595 0.164274 3.912096 15.412066 -1.371201 17.616709 -8.069229 -12.156248 0.096590 0.000001 0.000001 -0.000004 
-8.822449 99.501152 -9.011400 3.501570 5.866899 -6.413544 3.966991 0.160654 -2.429200 -3.490422 -3.076426 5.458054 -1.142767 -2.146609 -1.464813 -7.875445 -3.986543 5.080929 -0.000000 -0.000000 0.000000 5.626234 -9.508969 11.140935 -4.794089 -29.828396 10.108064 -76.957818 -70.722886 -74.623054 -0.000000 -0.000002 0.000000 -0.080325 1.599239 -19.266895 -3.741044 1.754604 -35.831661 -16.810474 4.505923 -55.609628 -0.000001 0.000003 -0.000002 -23.330992 -7.032248 28.301691 33.417172 -18.810203 -88.199182 -1.974193 34.396529 6.111856 -0.000000 -0.000001 -0.000001 -16.081081 0.134604 4.009250 15.829925 -1.192801 17.841202 -8.364569 -12.692289 0.124870 0.000002 0.000001 -0.000002 
-8.850987 99.381378 -9.098441 3.264198 5.977092 -6.448202 3.779436 0.150834 -2.505141 -3.413514 -2.980949 5.336539 -1.151765 -2.275650 -1.268065 -7.200905 -3.942620 5.211581 -0.000000 -0.000001 0.000000 5.547703 -8.883944 11.040967 -4.667514 -29.757133 9.948831 -78.758925 -70.556455 -76.862769 0.000001 0.000003 -0.000001 0.285850 2.050942 -19.304423 -3.725137 1.306659 -35.872522 -16.627006 4.588443 -55.445246 -0.000001 0.000003 0.000003 -22.931768 -6.859567 28.394338 32.667692 -18.391724 -89.092926 -1.973328 35.177940 6.134771 0.000000 -0.000002 0.000001 -15.793033 0.123325 4.106134 15.858613 -1.123183 17.765973 -8.208604 -12.329415 0.108784 -0.000000 0.000003 0.000003 
-8.875932 99.251015 -9.184318 3.559710 6.258699 -6.411501 3.584904 0.231386 -2.664170 -4.028227 -3.031102 5.294781 -0.206728 -2.398856 -1.187240 -7.738682 -4.175073 4.931350 -0.000000 -0.000000 0.000000 5.379598 -9.153644 11.205513 -4.544369 -30.148680 10.080787 -78.442803 -70.924828 -75.795497 -0.000003 -0.000002 -0.000001 0.248334 2.000873 -19.235006 -3.539736 1.393119 -35.905850 -16.414051 4.485049 -55.723463 -0.000004 0.000000 0.000001 -23.714748 -7.205341 28.246234 32.448849 -18.476037 -90.036045 -1.086048 35.749015 5.693460 -0.000001 0.000002 0.000002 -15.532701 0.202948 4.064257 15.560865 -1.004791 17.768300 -8.775196 -12.585272 0.097541 0.000001 0.000002 -0.000002 
-8.897202 99.139694 -9.269978 3.308344 6.520982 -6.548502 3.666493 0.199928 -2.578688 -4.259658 -3.099508 5.429679 -0.092363 -2.251081 -1.342332 -7.496122 -4.281046 5.275584 -0.000000 -0.000000 0.000000 5.425143 -9.359224 11.028640 -4.731155 -29.918564 10.002891 -79.769854 -70.168842 -78.520292 -0.000001 0.000001 -0.000000 -0.147901 1.640141 -19.026855 -3.732549 1.692845 -35.865935 -16.676532 5.290457 -55.705032 0.000001 0.000002 -0.000000 -23.310992 -7.151092 28.430458 32.253458 -18.227219 -90.166024 -1.097807 36.156860 5.785433 -0.000001 -0.000001 -0.000000 -15.935026 0.207514 4.045775 15.866214 -1.105775 18.028539 -8.891241 -12.844079 0.123196 0.000002 0.000001 -0.000000 
